<?xml version="1.0" encoding="UTF-8" standalone="no"?>
<!-- Created with Inkscape (http://www.inkscape.org/) -->

<svg
   xmlns:dc="http://purl.org/dc/elements/1.1/"
   xmlns:cc="http://creativecommons.org/ns#"
   xmlns:rdf="http://www.w3.org/1999/02/22-rdf-syntax-ns#"
   xmlns:svg="http://www.w3.org/2000/svg"
   xmlns="http://www.w3.org/2000/svg"
   xmlns:sodipodi="http://sodipodi.sourceforge.net/DTD/sodipodi-0.dtd"
   xmlns:inkscape="http://www.inkscape.org/namespaces/inkscape"
   width="140mm"
   height="140mm"
   viewBox="0 0 140 140"
   version="1.1"
   id="svg8"
   inkscape:export-filename="/tmp/transparence_confiance.png"
   inkscape:export-xdpi="77"
   inkscape:export-ydpi="77"
   inkscape:version="0.92.1 r15371"
   sodipodi:docname="confiance_transparence.svg">
  <defs
     id="defs2" />
  <sodipodi:namedview
     id="base"
     pagecolor="#ffffff"
     bordercolor="#666666"
     borderopacity="1.0"
     inkscape:pageopacity="0.0"
     inkscape:pageshadow="2"
     inkscape:zoom="0.85392614"
     inkscape:cx="264.56693"
     inkscape:cy="221.35704"
     inkscape:document-units="mm"
     inkscape:current-layer="layer1"
     showgrid="false"
     fit-margin-top="0"
     fit-margin-left="0"
     fit-margin-right="0"
     fit-margin-bottom="0"
     inkscape:window-width="1920"
     inkscape:window-height="1016"
     inkscape:window-x="0"
     inkscape:window-y="27"
     inkscape:window-maximized="1" />
  <metadata
     id="metadata5">
    <rdf:RDF>
      <cc:Work
         rdf:about="">
        <dc:format>image/svg+xml</dc:format>
        <dc:type
           rdf:resource="http://purl.org/dc/dcmitype/StillImage" />
        <dc:title></dc:title>
      </cc:Work>
    </rdf:RDF>
  </metadata>
  <g
     inkscape:label="Calque 1"
     inkscape:groupmode="layer"
     id="layer1"
     transform="translate(-4.3582462,34.111831)">
    <text
       xml:space="preserve"
       style="font-style:normal;font-weight:normal;font-size:4.63020849px;line-height:6.61458302px;font-family:Sans;letter-spacing:0px;word-spacing:0px;fill:#000000;fill-opacity:1;stroke:none;stroke-width:0.26458332px;stroke-linecap:butt;stroke-linejoin:miter;stroke-opacity:1"
       x="71.815475"
       y="18.053572"
       id="text4495"><tspan
         sodipodi:role="line"
         id="tspan4493"
         x="71.815475"
         y="22.563633"
         style="stroke-width:0.26458332px"></tspan><tspan
         sodipodi:role="line"
         x="71.815475"
         y="29.178215"
         style="stroke-width:0.26458332px"
         id="tspan4497" /></text>
    <text
       xml:space="preserve"
       style="font-style:normal;font-weight:normal;font-size:4.63020849px;line-height:6.61458302px;font-family:Sans;letter-spacing:0px;word-spacing:0px;fill:#000000;fill-opacity:1;stroke:none;stroke-width:0.26458332px;stroke-linecap:butt;stroke-linejoin:miter;stroke-opacity:1"
       x="73.893158"
       y="38.177914"
       id="text4487"><tspan
         sodipodi:role="line"
         id="tspan4485"
         x="76.139359"
         y="38.177914"
         style="font-size:14.11111069px;text-align:center;text-anchor:middle;stroke-width:0.26458332px">Sans transparence, </tspan><tspan
         sodipodi:role="line"
         x="73.893158"
         y="44.792496"
         style="font-size:14.11111069px;text-align:center;text-anchor:middle;stroke-width:0.26458332px"
         id="tspan4489" /><tspan
         sodipodi:role="line"
         x="73.893158"
         y="53.869892"
         style="font-size:14.11111069px;text-align:center;text-anchor:middle;stroke-width:0.26458332px"
         id="tspan4491">pas de confiance</tspan></text>
    <g
       id="g4659"
       transform="translate(2.6097706,-12.170835)">
      <text
         id="text4501"
         y="-4.2173133"
         x="61.438805"
         style="font-style:normal;font-weight:normal;font-size:4.63020849px;line-height:6.61458302px;font-family:Sans;letter-spacing:0px;word-spacing:0px;fill:#000000;fill-opacity:1;stroke:none;stroke-width:0.26458332px;stroke-linecap:butt;stroke-linejoin:miter;stroke-opacity:1"
         xml:space="preserve"><tspan
           style="stroke-width:0.26458332px"
           y="-4.2173133"
           x="61.438805"
           id="tspan4499"
           sodipodi:role="line">Frais des mandats</tspan></text>
      <text
         id="text4505"
         y="-13.129449"
         x="26.707523"
         style="font-style:normal;font-weight:normal;font-size:4.63020849px;line-height:6.61458302px;font-family:Sans;letter-spacing:0px;word-spacing:0px;fill:#000000;fill-opacity:1;stroke:none;stroke-width:0.26458332px;stroke-linecap:butt;stroke-linejoin:miter;stroke-opacity:1"
         xml:space="preserve"><tspan
           style="stroke-width:0.26458332px"
           y="-13.129449"
           x="26.707523"
           id="tspan4503"
           sodipodi:role="line">Lutte contre les conflits d'intérêts</tspan></text>
      <text
         id="text4509"
         y="17.316467"
         x="9.1763697"
         style="font-style:normal;font-weight:normal;font-size:4.63020849px;line-height:6.61458302px;font-family:Sans;letter-spacing:0px;word-spacing:0px;fill:#000000;fill-opacity:1;stroke:none;stroke-width:0.26458332px;stroke-linecap:butt;stroke-linejoin:miter;stroke-opacity:1"
         xml:space="preserve"><tspan
           style="stroke-width:0.26458332px"
           y="17.316467"
           x="9.1763697"
           id="tspan4507"
           sodipodi:role="line">Commission de déontologie</tspan></text>
      <text
         id="text4513"
         y="9.0766315"
         x="53.712349"
         style="font-style:normal;font-weight:normal;font-size:4.63020849px;line-height:6.61458302px;font-family:Sans;letter-spacing:0px;word-spacing:0px;fill:#000000;fill-opacity:1;stroke:none;stroke-width:0.26458332px;stroke-linecap:butt;stroke-linejoin:miter;stroke-opacity:1"
         xml:space="preserve"><tspan
           style="stroke-width:0.26458332px"
           y="9.0766315"
           x="53.712349"
           id="tspan4511"
           sodipodi:role="line">Pantouflage</tspan></text>
      <text
         id="text4517"
         y="0.16450748"
         x="24.83017"
         style="font-style:normal;font-weight:normal;font-size:4.63020849px;line-height:6.61458302px;font-family:Sans;letter-spacing:0px;word-spacing:0px;fill:#000000;fill-opacity:1;stroke:none;stroke-width:0.26458332px;stroke-linecap:butt;stroke-linejoin:miter;stroke-opacity:1"
         xml:space="preserve"><tspan
           style="stroke-width:0.26458332px"
           y="0.16450748"
           x="24.83017"
           id="tspan4515"
           sodipodi:role="line">Enrichissement</tspan></text>
      <text
         id="text4521"
         y="-8.069972"
         x="107.1405"
         style="font-style:normal;font-weight:normal;font-size:4.63020849px;line-height:6.61458302px;font-family:Sans;letter-spacing:0px;word-spacing:0px;fill:#000000;fill-opacity:1;stroke:none;stroke-width:0.26458332px;stroke-linecap:butt;stroke-linejoin:miter;stroke-opacity:1"
         xml:space="preserve"><tspan
           style="stroke-width:0.26458332px"
           y="-8.069972"
           x="107.1405"
           id="tspan4519"
           sodipodi:role="line">Déports</tspan></text>
      <text
         id="text4525"
         y="24.338757"
         x="34.317894"
         style="font-style:normal;font-weight:normal;font-size:4.63020849px;line-height:6.61458302px;font-family:Sans;letter-spacing:0px;word-spacing:0px;fill:#000000;fill-opacity:1;stroke:none;stroke-width:0.26458332px;stroke-linecap:butt;stroke-linejoin:miter;stroke-opacity:1"
         xml:space="preserve"><tspan
           style="stroke-width:0.26458332px"
           y="24.338757"
           x="34.317894"
           id="tspan4523"
           sodipodi:role="line">HATVP</tspan></text>
      <text
         id="text4529"
         y="23.958076"
         x="103.03276"
         style="font-style:normal;font-weight:normal;font-size:4.63020849px;line-height:6.61458302px;font-family:Sans;letter-spacing:0px;word-spacing:0px;fill:#000000;fill-opacity:1;stroke:none;stroke-width:0.26458332px;stroke-linecap:butt;stroke-linejoin:miter;stroke-opacity:1"
         xml:space="preserve"><tspan
           style="stroke-width:0.26458332px"
           y="23.958076"
           x="103.03276"
           id="tspan4527"
           sodipodi:role="line">Simplification</tspan></text>
      <text
         id="text4533"
         y="-6.0964241"
         x="8.9819374"
         style="font-style:normal;font-weight:normal;font-size:4.63020849px;line-height:6.61458302px;font-family:Sans;letter-spacing:0px;word-spacing:0px;fill:#000000;fill-opacity:1;stroke:none;stroke-width:0.26458332px;stroke-linecap:butt;stroke-linejoin:miter;stroke-opacity:1"
         xml:space="preserve"><tspan
           style="stroke-width:0.26458332px"
           y="-6.0964241"
           x="8.9819374"
           id="tspan4531"
           sodipodi:role="line">Lobbying</tspan></text>
      <text
         id="text4537"
         y="2.5781446"
         x="85.264771"
         style="font-style:normal;font-weight:normal;font-size:4.63020849px;line-height:6.61458302px;font-family:Sans;letter-spacing:0px;word-spacing:0px;fill:#000000;fill-opacity:1;stroke:none;stroke-width:0.26458332px;stroke-linecap:butt;stroke-linejoin:miter;stroke-opacity:1"
         xml:space="preserve"><tspan
           style="stroke-width:0.26458332px"
           y="2.5781446"
           x="85.264771"
           id="tspan4535"
           sodipodi:role="line">Empreinte normative</tspan></text>
      <text
         id="text4541"
         y="16.104279"
         x="85.653641"
         style="font-style:normal;font-weight:normal;font-size:4.63020849px;line-height:6.61458302px;font-family:Sans;letter-spacing:0px;word-spacing:0px;fill:#000000;fill-opacity:1;stroke:none;stroke-width:0.26458332px;stroke-linecap:butt;stroke-linejoin:miter;stroke-opacity:1"
         xml:space="preserve"><tspan
           style="stroke-width:0.26458332px"
           y="16.104279"
           x="85.653641"
           id="tspan4539"
           sodipodi:role="line">Cabinets ministériels</tspan></text>
      <text
         id="text4545"
         y="7.7266974"
         x="9.1763697"
         style="font-style:normal;font-weight:normal;font-size:4.63020849px;line-height:6.61458302px;font-family:Sans;letter-spacing:0px;word-spacing:0px;fill:#000000;fill-opacity:1;stroke:none;stroke-width:0.26458332px;stroke-linecap:butt;stroke-linejoin:miter;stroke-opacity:1"
         xml:space="preserve"><tspan
           style="stroke-width:0.26458332px"
           y="7.7266974"
           x="9.1763697"
           id="tspan4543"
           sodipodi:role="line">Collaborateurs</tspan></text>
      <text
         id="text4549"
         y="27.959217"
         x="68.861122"
         style="font-style:normal;font-weight:normal;font-size:4.63020849px;line-height:6.61458302px;font-family:Sans;letter-spacing:0px;word-spacing:0px;fill:#000000;fill-opacity:1;stroke:none;stroke-width:0.26458332px;stroke-linecap:butt;stroke-linejoin:miter;stroke-opacity:1"
         xml:space="preserve"><tspan
           style="stroke-width:0.26458332px"
           y="27.959217"
           x="68.861122"
           id="tspan4547"
           sodipodi:role="line">IRFM</tspan></text>
      <text
         id="text4553"
         y="33.107777"
         x="9.1763697"
         style="font-style:normal;font-weight:normal;font-size:4.63020849px;line-height:6.61458302px;font-family:Sans;letter-spacing:0px;word-spacing:0px;fill:#000000;fill-opacity:1;stroke:none;stroke-width:0.26458332px;stroke-linecap:butt;stroke-linejoin:miter;stroke-opacity:1"
         xml:space="preserve"><tspan
           style="stroke-width:0.26458332px"
           y="33.107777"
           x="9.1763697"
           id="tspan4551"
           sodipodi:role="line">Comptes de campagnes</tspan></text>
      <text
         id="text4557"
         y="32.341042"
         x="97.382904"
         style="font-style:normal;font-weight:normal;font-size:4.63020849px;line-height:6.61458302px;font-family:Sans;letter-spacing:0px;word-spacing:0px;fill:#000000;fill-opacity:1;stroke:none;stroke-width:0.26458332px;stroke-linecap:butt;stroke-linejoin:miter;stroke-opacity:1"
         xml:space="preserve"><tspan
           style="stroke-width:0.26458332px"
           y="32.341042"
           x="97.382904"
           id="tspan4555"
           sodipodi:role="line">Partis politiques</tspan></text>
    </g>
    <g
       style="display:inline"
       id="g3280"
       transform="matrix(0.20550199,0,0,0.23192889,52.518062,-76.465164)">
      <path
         sodipodi:nodetypes="ssccccsccscccccccccccccccc"
         inkscape:connector-curvature="0"
         id="path6-9"
         d="m 71.574228,591.79835 c -0.497504,0.008 -1.005112,0.042 -1.520621,0.10469 -4.561561,0.55474 -8.886741,2.31893 -11.623252,5.55674 -3.667436,4.33901 -2.955861,10.85376 2.499522,13.89184 3.172929,1.76707 7.316319,1.978 10.948476,1.49789 5.366883,-0.70945 10.135628,-4.36749 11.110042,-8.94714 1.335487,-6.27577 -3.951596,-12.21271 -11.414167,-12.10402 z m 7.377595,39.31986 c -7.710574,3.60855 -5.530242,2.4421 -12.676252,6.15896 -1.617334,0.84114 -8.082814,4.30708 -6.638223,6.3035 2.323206,3.21073 9.468304,-0.41148 12.545129,-1.28046 1.149895,-0.3247 2.757268,-1.05143 3.88709,-0.35435 2.283669,1.40861 3.457133,6.16376 4.504842,8.34316 13.104234,28.70762 17.438563,38.86403 27.559341,60.48064 3.97939,8.49805 9.50481,21.98995 13.93463,32.03496 -0.004,8e-5 -0.006,-9e-5 -0.009,0 -3.61482,1.36479 -11.08046,5.3007 -10.03611,9.01962 6.91226,-1.90984 46.34469,-14.26779 44.83935,-15.92125 -0.74269,-0.73522 -1.89645,-0.85805 -3.09827,-0.77311 h -0.009 c -3.52047,0.2714 -10.04714,1.74649 -12.16497,0.53152 -4.50682,-6.97035 -7.89973,-18.01204 -9.97911,-22.7504 -8.53287,-20.26281 -17.40207,-42.37088 -24.65309,-60.81805 -2.67325,-6.79565 -5.44398,-13.56475 -8.116318,-20.35859 -0.790723,-2.00984 -1.395626,-6.31502 -3.573461,-7.53783 -2.715991,-1.05956 -14.155772,5.72007 -16.315596,6.92168 z"
         style="display:inline;fill:#b33237;stroke:none" />
      <g
         id="g3847"
         transform="matrix(0.30412435,0,0,0.25770362,-9.2038676,588.95623)"
         style="display:inline">
        <path
           sodipodi:nodetypes="csccccccscccccscccccccccsss"
           style="fill:#3b3b3b;stroke:none"
           d="m 553,289.465 c -51.032,9.201 -36.815,90.216 14,81.07 52.034,-9.365 38.365,-90.512 -14,-81.07 M 286,292 c -17.329,22.548 -31.337,48.247 -46.997,72 -5.237,7.944 -9.734,17.829 -16.382,24.671 -7.869,8.1 -22.603,12.992 -32.621,18.085 -3.776,1.92 -11.502,4.604 -13.397,8.634 -3.405,7.243 -0.603,21.63 -0.603,29.61 0,24.258 1.031,48.768 -0.039,73 -2.037,46.1 -23.299,90.99 -26.961,137 7.424,0 25.389,3.319 31.486,-1.028 C 191.01927,620.84635 200.373,573.32281 203,543 h 1 c 2.693,11.642 13.503,28.152 11.747,40 -2.329,15.714 -11.335,33.045 -16.8,48 -1.465,4.008 -7.343,14.373 -4.826,18.436 3.355,5.416 22.8,6.852 28.879,8.564 5.15422,-29.08064 27.35956,-58.78862 25.812,-86 -1.801,-22.221 -16.038,-44.746 -15.552,-67 2.73317,-25.36053 4.39151,-53.95375 7.848,-75 5.435,-15.852 18.077,-30.864 25.645,-46 20.46732,-40.36499 28.77332,-46.00558 30.671,-62 0.684,-7.457 -6.509,-24.539 -11.424,-30 m -108,20.518 c -51.244,10.933 -33.149,91.328 18,80.271 51.351,-11.101 33.53,-91.265 -18,-80.271 z"
           id="path8"
           inkscape:connector-curvature="0" />
        <path
           style="fill:#3b3b3b;stroke:none"
           d="m 406,649 c 49.01488,-21.63862 25.99897,-8.21305 36.45339,-16.4947 6.10079,-4.83285 8.40042,-9.27424 14.23861,-18.5053 12.543,-19.474 25.459,-38.726 38.308,-58 3.21,-4.815 9.258,-18.708 15.184,-20.071 16.28263,3.3609 33.68121,10.70771 47.816,15.404 4.088,1.363 11.517,2.363 13.397,6.8 5.878,13.881 -3.047,33.244 0.921,47.774 C 590.24374,615.35209 612,629 612,629 c -0.475,-23.012 -3.952,-46.005 -4.961,-69 -0.344,-7.852 1.579,-23.889 -3.063,-30.502 -5.456,-7.771 -26.305,-11.955 -34.976,-15.648 -3.649,-1.554 -9.838,-2.779 -11.357,-6.958 -2.637,-7.251 2.085,-21.287 3.075,-28.892 2.475,-18.997 4.774,-38.024 7.412,-57 1.134,-8.158 4.414,-18.784 3.267,-26.957 -1.088,-7.746 -22.96,-15.773 -29.397,-19.274 -8.268,-4.496 -23.541,-17.243 -33,-16.96 -7.635,0.229 -17.812,10.731 -24,14.858 -20.265,13.516 -39.72,29.486 -61,41.333 l 18,31 c 14.946,-5.667 29.014,-19.699 42,-29 v 45 c 0,7.185 1.417,16.141 -0.966,23 -4.532,13.042 -12.354,25.512 -18.253,38 -13.379,28.324 -27.302,56.457 -40.217,85 -5.821,12.865 -17.107,27.776 -18.564,42"
           id="path24"
           inkscape:connector-curvature="0"
           sodipodi:nodetypes="cacsccccccccccccccccccsccsc" />
      </g>
      <g
         id="g3843"
         transform="matrix(0.30412435,0,0,0.25770362,-4.373443,582.35386)">
        <path
           style="fill:#000000;stroke:none"
           d="m 330,337.465 c -52.89677,9.123 -37.50326,89.092 15.67993,79.919 C 398.89762,408.205 383.62641,328.215 330,337.465 Z"
           id="path10"
           inkscape:connector-curvature="0" />
        <path
           sodipodi:nodetypes="ccccccscccccccccccccc"
           style="fill:#000000;stroke:none"
           d="m 287,400 c -2.239,28.327 -9.489,57.01 -14.358,84.989 C 262.223,544.854 251.459,606.452 235,665 c 5.757,1.702 25.322,3.823 30.272,-0.028 C 275.38525,635.66576 288.52749,593.31233 291,567 c 10.641,5.924 32.635,16.721 38.972,27.325 2.845,4.761 1.028,14.277 1.028,19.675 0,17.042 -1,33.942 -1,51 l 24,-6 c 3.513,-18.646 6.996,-37.307 10.25,-56 0.996,-5.723 5.03,-15.439 2.633,-21 -2.479,-5.749 -9.564,-10.588 -13.868,-15 -9.229,-9.461 -18.317,-19.199 -27.185,-29 -3.31,-3.658 -8.723,-7.284 -10.517,-12 -0.93501,-7.6544 3.6099,-43.40469 6.711,-48.621 3.185,-4.978 12.032,-8.161 16.976,-11.19 14.572,-8.927 37.114,-18.05 48,-31.189 -5.954,-3.475 -15.863,-10.631 -23,-9.428 -9.924,1.672 -26.75,13.683 -36.576,10.922 -4.33,-1.217 -8.364,-6.449 -11.424,-9.495 -8.599,-8.557 -17.95,-21.846 -29,-26.999 z"
           id="path40"
           inkscape:connector-curvature="0" />
      </g>
    </g>
  </g>
</svg>
